# xmcd
#
# Track frame offsets: 
#        150
#        11547
#        22174
#        34359
#        48140
#        58808
#        69240
#        82202
#        99016
#        112958
#        124295
#        142652
#        152074
#        165151
#        176184
#        189285
#        204611
#        224281
#        236501
#        246961
#        258857
#        274235
#
# Disc length: 3830 seconds
#
# Revision: 0
# Processed by: cddbd v1.5.2PL0 Copyright (c) Steve Scherf et al.
# Submitted via: ExactAudioCopy v0.99pb2
#
DISCID=2d0ef416
DTITLE=Linda Ronstadt - Home Sown... Home Grown and Silk Purse
DYEAR=2009
DGENRE=Blues
TTITLE0=Baby You've Been on My Mind
TTITLE1=Silver Threads and Golden Needles
TTITLE2=Bet No One Ever Hurt This Bad
TTITLE3=A Number and a Name
TTITLE4=The Only Mama That'll Walk the Line
TTITLE5=The Long Way Around
TTITLE6=Break My Mind
TTITLE7=I'll Be Your Baby Tonight
TTITLE8=It's About Time
TTITLE9=We Need a Lot More of Jesus (And a Lot Less Rock and Roll)
TTITLE10=The Dolphins
TTITLE11=Lovesick Blues
TTITLE12=Are My Thoughts with You
TTITLE13=Will You Love Me Tomorrow
TTITLE14=Nobodys
TTITLE15=Louise
TTITLE16=Long Long Time
TTITLE17=Mental Revenge
TTITLE18=I'm Leavin' It All Up to You
TTITLE19=He Darked the Sun
TTITLE20=Life Is Like a Mountain Railway
TTITLE21=(She's A) Very Lovely Woman
EXTD=
EXTT0=
EXTT1=
EXTT2=
EXTT3=
EXTT4=
EXTT5=
EXTT6=
EXTT7=
EXTT8=
EXTT9=
EXTT10=
EXTT11=
EXTT12=
EXTT13=
EXTT14=
EXTT15=
EXTT16=
EXTT17=
EXTT18=
EXTT19=
EXTT20=
EXTT21=
PLAYORDER=
